<svg width="1042" height="1022" viewBox="0 0 1042 1022" fill="none" xmlns="http://www.w3.org/2000/svg">
<circle opacity="0.54" cx="500.5" cy="433.5" r="309.5" stroke="#E0E0E0" stroke-width="2" stroke-dasharray="16 16"/>
<circle opacity="0.42" cx="500.5" cy="433.5" r="403.5" stroke="#E0E0E0" stroke-width="2" stroke-dasharray="16 16"/>
<circle opacity="0.23" cx="500.5" cy="433.5" r="499.5" stroke="#E0E0E0" stroke-width="2" stroke-dasharray="16 16"/>
<g filter="url(#filter0_f_216_869)">
<path d="M1008 46C953 181 837.5 165 607.5 200L558.5 206.5C509.5 206.5 190.499 222.5 171.999 113C115.946 -218.774 331 -123 525 -160.5C719 -198 1063.33 -89.8203 1008 46Z" fill="white"/>
<path d="M495 676.5C694.6 666.1 858.578 634.5 938.5 789.5C975.883 862 954.3 865.6 893.5 908C817.5 961 375 1040 200.5 960C26 880 32.4996 791.5 107.5 729.5C182.5 667.5 245.5 689.5 495 676.5Z" fill="white"/>
</g>
<defs>
<filter id="filter0_f_216_869" x="29.6479" y="-195.913" width="1012.19" height="1217.89" filterUnits="userSpaceOnUse" color-interpolation-filters="sRGB">
<feFlood flood-opacity="0" result="BackgroundImageFix"/>
<feBlend mode="normal" in="SourceGraphic" in2="BackgroundImageFix" result="shape"/>
<feGaussianBlur stdDeviation="13.95" result="effect1_foregroundBlur_216_869"/>
</filter>
</defs>
</svg>
