<svg width="71" height="71" viewBox="0 0 71 71" fill="none" xmlns="http://www.w3.org/2000/svg">
<rect x="1.17292" y="12.2744" width="58" height="58" rx="8" transform="rotate(-11.0348 1.17292 12.2744)" fill="url(#paint0_linear_216_900)"/>
<rect x="1.17292" y="12.2744" width="58" height="58" rx="8" transform="rotate(-11.0348 1.17292 12.2744)" stroke="#585858" stroke-width="2"/>
<g clip-path="url(#clip0_216_900)">
<path d="M32.0296 18.9925L30.8797 20.9326C30.8797 20.9326 28.9234 24.2759 27.1126 28.4691C25.3017 32.6624 23.4365 37.622 24.2654 41.8725C24.876 45.0038 26.7026 47.7649 29.3432 49.5484C31.9838 51.3318 35.2222 51.9915 38.346 51.3824C41.4697 50.7732 44.223 48.9451 46 46.3001C47.777 43.6552 48.4323 40.4101 47.8217 37.2788C46.9928 33.0283 43.4008 29.1329 40.147 25.9273C36.8933 22.7217 33.8242 20.3583 33.8242 20.3583L32.0296 18.9925ZM33.2307 25.1517C34.294 26.0065 35.2442 26.6995 37.3613 28.7787C40.4119 31.7788 43.4505 35.7617 43.8956 38.0444C44.7475 42.4129 41.9364 46.597 37.5785 47.4468C33.2206 48.2966 29.0433 45.4754 28.1914 41.1069C27.7463 38.8242 29.0657 33.9914 30.7655 30.0649C31.9463 27.3427 32.5665 26.3434 33.2307 25.1517Z" fill="white"/>
</g>
<defs>
<linearGradient id="paint0_linear_216_900" x1="30" y1="11.4843" x2="30" y2="71.4843" gradientUnits="userSpaceOnUse">
<stop stop-color="#202020"/>
<stop offset="1" stop-color="#4B4B4B"/>
</linearGradient>
<clipPath id="clip0_216_900">
<rect width="36" height="36" fill="white" transform="translate(14.0752 20.9655) rotate(-11.0348)"/>
</clipPath>
</defs>
</svg>
