<svg width="60" height="60" viewBox="0 0 60 60" fill="none" xmlns="http://www.w3.org/2000/svg">
<rect x="1" y="1" width="58" height="58" rx="8" fill="url(#paint0_linear_216_894)"/>
<rect x="1" y="1" width="58" height="58" rx="8" stroke="#585858" stroke-width="2"/>
<path fill-rule="evenodd" clip-rule="evenodd" d="M30.5591 24.138L31.7726 22.9245C31.5007 22.3594 31.3497 21.7438 31.3295 21.117C31.3093 20.4903 31.4203 19.8662 31.6554 19.2848C31.8904 18.7035 32.2443 18.1776 32.6945 17.741C33.1446 17.3044 33.6809 16.9666 34.2692 16.7494C34.8575 16.5321 35.4846 16.4402 36.1105 16.4794C36.7363 16.5187 37.3471 16.6882 37.9036 16.9773C38.4601 17.2663 38.9501 17.6685 39.3421 18.1579C39.7341 18.6473 40.0196 19.2133 40.1801 19.8195C40.7833 19.9826 41.3459 20.2696 41.8321 20.6622C42.3183 21.0548 42.7174 21.5443 43.004 22.0995C43.2905 22.6548 43.4583 23.2637 43.4967 23.8874C43.535 24.5111 43.443 25.1359 43.2265 25.7221C43.0101 26.3083 42.6739 26.843 42.2395 27.2921C41.805 27.7412 41.2818 28.0949 40.7031 28.3307C40.1244 28.5665 39.503 28.6792 38.8784 28.6616C38.2537 28.644 37.6396 28.4965 37.0751 28.2285L35.8616 29.442L35.8691 29.493C36.0431 30.882 35.9396 32.427 35.6396 33.945C35.0471 36.9465 33.6191 40.17 31.5896 42.198C29.5406 44.247 27.1226 45.093 24.7031 44.877C22.3286 44.6655 20.1116 43.446 18.3326 41.667C16.5536 39.8895 15.3356 37.6725 15.1226 35.2965C14.9066 32.877 15.7526 30.459 17.8016 28.41C19.8311 26.3805 23.0546 24.954 26.0546 24.36C27.5741 24.06 29.1176 23.9565 30.5081 24.132L30.5591 24.138ZM38.9216 22.6695C38.5825 22.2601 38.0946 22.0022 37.5654 21.9526C37.0361 21.9029 36.5088 22.0656 36.0994 22.4047C35.69 22.7439 35.4322 23.2318 35.3825 23.761C35.3329 24.2903 35.4955 24.8176 35.8346 25.227L34.7291 26.331C34.4354 25.9224 34.0772 25.5643 33.6686 25.2705L34.7726 24.1665C35.0539 23.8852 35.2118 23.5037 35.2118 23.106C35.2118 22.7082 35.0539 22.3268 34.7726 22.0455C34.5953 21.8682 34.4653 21.6494 34.3944 21.4089C34.3235 21.1685 34.314 20.914 34.3667 20.669C34.4195 20.4239 34.5329 20.1959 34.6964 20.0059C34.86 19.816 35.0686 19.67 35.3031 19.5814C35.5377 19.4928 35.7906 19.4644 36.039 19.4989C36.2873 19.5333 36.5231 19.6293 36.7247 19.7783C36.9263 19.9274 37.0873 20.1245 37.1931 20.3518C37.2989 20.5791 37.346 20.8293 37.3301 21.0795C37.317 21.2917 37.3491 21.5043 37.4243 21.7032C37.4996 21.9021 37.6163 22.0827 37.7666 22.233C37.917 22.3834 38.0976 22.5 38.2964 22.5753C38.4953 22.6505 38.7094 22.6826 38.9216 22.6695ZM19.9241 30.5295C21.4091 29.0445 24.0191 27.8205 26.6366 27.3045C27.9266 27.0495 29.1386 26.9835 30.1316 27.1095C31.1471 27.2355 31.7831 27.5415 32.1206 27.879C32.4581 28.2165 32.7641 28.854 32.8916 29.868C33.0176 30.8625 32.9516 32.073 32.6966 33.363C32.1791 35.979 30.9551 38.5905 29.4686 40.077C28.0046 41.5425 26.4446 42.021 24.9701 41.889C23.4506 41.754 21.8576 40.95 20.4551 39.546C19.0496 38.1435 18.2471 36.549 18.1106 35.031C17.9786 33.555 18.4586 31.9965 19.9241 30.531V30.5295Z" fill="white"/>
<defs>
<linearGradient id="paint0_linear_216_894" x1="30" y1="0" x2="30" y2="60" gradientUnits="userSpaceOnUse">
<stop stop-color="#202020"/>
<stop offset="1" stop-color="#4B4B4B"/>
</linearGradient>
</defs>
</svg>
