<svg width="77" height="77" viewBox="0 0 77 77" fill="none" xmlns="http://www.w3.org/2000/svg">
<rect x="19.8099" y="1.26722" width="58" height="58" rx="8" transform="rotate(18.645 19.8099 1.26722)" fill="url(#paint0_linear_216_914)"/>
<rect x="19.8099" y="1.26722" width="58" height="58" rx="8" transform="rotate(18.645 19.8099 1.26722)" stroke="#585858" stroke-width="2"/>
<g clip-path="url(#clip0_216_914)">
<path fill-rule="evenodd" clip-rule="evenodd" d="M36.355 35.0814L33.2993 34.0504C29.2373 32.6798 24.833 34.8618 23.4625 38.9238C23.1668 39.8002 23.2313 40.7582 23.6419 41.587C24.0525 42.4158 24.7756 43.0475 25.652 43.3432L36.809 47.1077C37.6854 47.4034 38.6434 47.3389 39.4722 46.9283C40.301 46.5176 40.9327 45.7946 41.2284 44.9182C42.599 40.8562 40.417 36.452 36.355 35.0814ZM33.7788 32.6291C28.9323 30.9938 23.6765 33.5977 22.0412 38.4442C21.6183 39.6976 21.7106 41.0676 22.2978 42.2529C22.8851 43.4381 23.9191 44.3416 25.1724 44.7645L36.3294 48.529C37.5828 48.9519 38.9528 48.8596 40.1381 48.2724C41.3234 47.6851 42.2268 46.6511 42.6497 45.3978C44.285 40.5512 41.6811 35.2954 36.8346 33.6601L33.7788 32.6291Z" fill="white"/>
<path fill-rule="evenodd" clip-rule="evenodd" d="M30.5356 34.7579C29.6833 35.4939 29.0235 36.5179 28.7694 37.2712C28.7058 37.4597 28.5699 37.6152 28.3917 37.7035C28.2135 37.7918 28.0074 37.8056 27.819 37.7421C27.6305 37.6785 27.475 37.5426 27.3867 37.3644C27.2984 37.1861 27.2845 36.9801 27.3481 36.7916C27.6934 35.7683 28.5131 34.5212 29.5574 33.6221C30.5883 32.732 32.0236 32.0369 33.5302 32.5452C33.7186 32.6088 33.8741 32.7446 33.9624 32.9229C34.0507 33.1011 34.0646 33.3071 34.001 33.4956C33.9374 33.6841 33.8016 33.8396 33.6233 33.9279C33.4451 34.0162 33.2391 34.0301 33.0506 33.9665C32.2831 33.7075 31.4016 34.0117 30.5356 34.7579ZM34.0888 35.9568C33.2365 36.6927 32.5767 37.7168 32.3226 38.4701C32.259 38.6586 32.1231 38.814 31.9449 38.9023C31.7666 38.9906 31.5606 39.0045 31.3722 38.9409C31.1837 38.8773 31.0282 38.7415 30.9399 38.5632C30.8516 38.385 30.8377 38.179 30.9013 37.9905C31.2466 36.9672 32.0663 35.7201 33.1106 34.821C34.1415 33.9309 35.5768 33.2358 37.0833 33.7441C37.2718 33.8077 37.4273 33.9435 37.5156 34.1218C37.6039 34.3 37.6178 34.506 37.5542 34.6945C37.4906 34.883 37.3548 35.0385 37.1765 35.1268C36.9983 35.2151 36.7923 35.2289 36.6038 35.1654C35.8363 34.9064 34.9548 35.2105 34.0888 35.9568ZM39.7527 35.4276C39.7943 35.622 39.757 35.8249 39.649 35.9918C39.5411 36.1587 39.3713 36.2759 39.1769 36.3177C38.4966 36.4642 37.7805 36.9515 37.1547 37.6285C36.5325 38.2996 36.0757 39.0763 35.8758 39.669C35.8122 39.8574 35.6763 40.0129 35.4981 40.1012C35.3198 40.1895 35.1138 40.2034 34.9253 40.1398C34.7369 40.0762 34.5814 39.9404 34.4931 39.7621C34.4048 39.5839 34.3909 39.3779 34.4545 39.1894C34.7326 38.3651 35.312 37.4104 36.0532 36.6094C36.7904 35.8133 37.7622 35.0868 38.8626 34.8518C39.057 34.8102 39.2599 34.8475 39.4268 34.9555C39.5937 35.0634 39.7109 35.2332 39.7527 35.4276ZM49.1903 30.7052C49.3787 30.7688 49.5342 30.9047 49.6225 31.0829C49.7108 31.2611 49.7247 31.4672 49.6611 31.6556L46.3043 41.6046C46.2407 41.793 46.1048 41.9485 45.9266 42.0368C45.7483 42.1251 45.5423 42.139 45.3538 42.0754C45.1654 42.0118 45.0099 41.876 44.9216 41.6977C44.8333 41.5195 44.8194 41.3135 44.883 41.125L48.2399 31.1761C48.3035 30.9876 48.4393 30.8321 48.6175 30.7438C48.7958 30.6555 49.0018 30.6416 49.1903 30.7052ZM54.8754 32.6234C55.0639 32.687 55.2193 32.8229 55.3077 33.0011C55.396 33.1794 55.4098 33.3854 55.3462 33.5738L51.9894 43.5228C51.9258 43.7113 51.7899 43.8668 51.6117 43.9551C51.4334 44.0434 51.2274 44.0572 51.0389 43.9936C50.8505 43.9301 50.695 43.7942 50.6067 43.616C50.5184 43.4377 50.5045 43.2317 50.5681 43.0432L53.925 33.0943C53.9886 32.9058 54.1244 32.7503 54.3027 32.662C54.4809 32.5737 54.6869 32.5598 54.8754 32.6234ZM52.0328 31.6643C52.2213 31.7279 52.3768 31.8638 52.4651 32.042C52.5534 32.2203 52.5673 32.4263 52.5037 32.6147L49.1468 42.5637C49.0832 42.7521 48.9474 42.9076 48.7691 42.9959C48.5909 43.0842 48.3849 43.0981 48.1964 43.0345C48.0079 42.9709 47.8524 42.8351 47.7641 42.6568C47.6758 42.4786 47.6619 42.2726 47.7255 42.0841L51.0824 32.1352C51.146 31.9467 51.2819 31.7912 51.4601 31.7029C51.6383 31.6146 51.8444 31.6007 52.0328 31.6643Z" fill="white"/>
<path fill-rule="evenodd" clip-rule="evenodd" d="M49.1559 40.192C49.3444 40.2556 49.4998 40.3914 49.5881 40.5697C49.6764 40.7479 49.6903 40.9539 49.6267 41.1424L46.2699 51.0913C46.2063 51.2798 46.0704 51.4353 45.8922 51.5236C45.7139 51.6119 45.5079 51.6258 45.3194 51.5622C45.131 51.4986 44.9755 51.3628 44.8872 51.1845C44.7989 51.0063 44.785 50.8003 44.8486 50.6118L48.2055 40.6629C48.2691 40.4744 48.4049 40.3189 48.5832 40.2306C48.7614 40.1423 48.9674 40.1284 49.1559 40.192ZM48.2402 31.1761L46.9147 35.1045C46.7366 35.6324 46.7089 36.1995 46.8349 36.7422C46.9609 37.285 47.2355 37.7819 47.628 38.1773L49.8665 40.4318L51.192 36.5034C51.3702 35.9755 51.3978 35.4084 51.2718 34.8656C51.1458 34.3229 50.8712 33.826 50.4787 33.4306L48.2402 31.1761ZM48.8856 33.9553L48.336 35.584C48.247 35.8481 48.2332 36.1316 48.2962 36.403C48.3593 36.6744 48.4967 36.9229 48.693 37.1206L49.2212 37.6526L49.7707 36.0238C49.8598 35.7598 49.8736 35.4762 49.8105 35.2048C49.7475 34.9334 49.6101 34.685 49.4137 34.4873L48.8856 33.9553Z" fill="white"/>
<path fill-rule="evenodd" clip-rule="evenodd" d="M46.8013 35.4399L45.4758 39.3683C45.2976 39.8962 45.27 40.4633 45.396 41.006C45.5219 41.5487 45.7966 42.0457 46.1891 42.4411L48.4276 44.6956L49.753 40.7672C49.9312 40.2393 49.9589 39.6722 49.8329 39.1294C49.7069 38.5867 49.4323 38.0898 49.0397 37.6943L46.8013 35.4399ZM47.4466 38.2191L46.8971 39.8478C46.808 40.1118 46.7942 40.3954 46.8573 40.6668C46.9203 40.9382 47.0577 41.1867 47.2541 41.3844L47.7822 41.9164L48.3318 40.2876C48.4208 40.0236 48.4346 39.74 48.3715 39.4686C48.3085 39.1972 48.1711 38.9488 47.9748 38.7511L47.4466 38.2191Z" fill="white"/>
<path fill-rule="evenodd" clip-rule="evenodd" d="M45.3629 39.7037L44.0374 43.6322C43.8592 44.1601 43.8316 44.7272 43.9576 45.2699C44.0836 45.8126 44.3582 46.3095 44.7507 46.705L46.9892 48.9594L48.3147 45.031C48.4929 44.5031 48.5205 43.936 48.3945 43.3933C48.2685 42.8506 47.9939 42.3536 47.6014 41.9582L45.3629 39.7037ZM46.0083 42.4829L45.4587 44.1117C45.3696 44.3757 45.3559 44.6593 45.4189 44.9307C45.482 45.2021 45.6194 45.4505 45.8157 45.6482L46.3438 46.1803L46.8934 44.5515C46.9825 44.2875 46.9962 44.0039 46.9332 43.7325C46.8701 43.4611 46.7327 43.2126 46.5364 43.0149L46.0083 42.4829ZM55.3466 33.5739L54.0211 37.5023C53.8431 38.0302 53.5215 38.4981 53.0924 38.8536C52.6634 39.209 52.1438 39.438 51.592 39.5148L48.4452 39.9522L49.7707 36.0238C49.9488 35.4959 50.2704 35.028 50.6994 34.6725C51.1285 34.317 51.648 34.0881 52.1999 34.0113L55.3466 33.5739ZM53.1494 35.3939L52.5999 37.0227C52.5108 37.2867 52.3499 37.5207 52.1353 37.6984C51.9207 37.8761 51.6609 37.9905 51.3849 38.0289L50.6424 38.1321L51.192 36.5034C51.2811 36.2394 51.4419 36.0054 51.6565 35.8277C51.8711 35.65 52.131 35.5355 52.4069 35.4972L53.1494 35.3939Z" fill="white"/>
<path fill-rule="evenodd" clip-rule="evenodd" d="M53.9079 37.8377L52.5824 41.7661C52.4043 42.2941 52.0827 42.762 51.6537 43.1174C51.2246 43.4729 50.7051 43.7018 50.1532 43.7786L47.0065 44.2161L48.332 40.2877C48.5101 39.7597 48.8316 39.2918 49.2607 38.9364C49.6897 38.5809 50.2093 38.3519 50.7611 38.2751L53.9079 37.8377ZM51.7107 39.6578L51.1611 41.2866C51.072 41.5506 50.9112 41.7845 50.6966 41.9622C50.482 42.1399 50.2222 42.2544 49.9462 42.2927L49.2037 42.396L49.7533 40.7672C49.8423 40.5032 50.0032 40.2693 50.2178 40.0915C50.4324 39.9138 50.6922 39.7994 50.9682 39.7611L51.7107 39.6578Z" fill="white"/>
<path fill-rule="evenodd" clip-rule="evenodd" d="M52.4689 42.1015L51.1434 46.0299C50.9653 46.5579 50.6438 47.0258 50.2147 47.3812C49.7857 47.7367 49.2661 47.9656 48.7143 48.0424L45.5675 48.4799L46.893 44.5515C47.0711 44.0235 47.3927 43.5556 47.8217 43.2001C48.2508 42.8447 48.7703 42.6157 49.3222 42.5389L52.4689 42.1015ZM50.2717 43.9216L49.7221 45.5504C49.6331 45.8144 49.4722 46.0483 49.2576 46.226C49.043 46.4037 48.7832 46.5182 48.5072 46.5565L47.7647 46.6598L48.3143 45.031C48.4034 44.767 48.5642 44.533 48.7788 44.3553C48.9934 44.1776 49.2532 44.0632 49.5292 44.0249L50.2717 43.9216Z" fill="white"/>
</g>
<defs>
<linearGradient id="paint0_linear_216_914" x1="49.1821" y1="0" x2="49.1821" y2="60" gradientUnits="userSpaceOnUse">
<stop stop-color="#202020"/>
<stop offset="1" stop-color="#4B4B4B"/>
</linearGradient>
<clipPath id="clip0_216_914">
<rect width="36" height="36" fill="white" transform="translate(26.7158 15.2066) rotate(18.645)"/>
</clipPath>
</defs>
</svg>
