<svg width="67" height="67" viewBox="0 0 67 67" fill="none" xmlns="http://www.w3.org/2000/svg">
<rect x="7.46678" y="1.10367" width="58" height="58" rx="8" transform="rotate(6.29846 7.46678 1.10367)" fill="url(#paint0_linear_216_907)"/>
<rect x="7.46678" y="1.10367" width="58" height="58" rx="8" transform="rotate(6.29846 7.46678 1.10367)" stroke="#585858" stroke-width="2"/>
<g clip-path="url(#clip0_216_907)">
<path d="M39.4339 16.8307C39.2038 18.9157 39.3761 20.8801 39.9507 22.7238C40.5253 24.5675 41.4532 26.3087 42.7343 27.9474C44.0154 29.5861 44.9432 31.3273 45.5179 33.171C46.0925 35.0147 46.2647 36.9791 46.0346 39.0641C45.8983 40.2988 45.61 41.4695 45.1695 42.5763C44.729 43.6831 44.1571 44.6988 43.4537 45.6233C42.7504 46.5478 41.9513 47.3792 41.0563 48.1175C40.1613 48.8558 39.1814 49.455 38.1167 49.9152C37.052 50.3754 35.9308 50.7056 34.7533 50.9057C33.5758 51.1059 32.3697 51.1378 31.1351 51.0015C29.9004 50.8653 28.7296 50.5769 27.6228 50.1364C26.516 49.6959 25.5004 49.124 24.5759 48.4207C23.6514 47.7173 22.8199 46.9182 22.0816 46.0232C21.3433 45.1282 20.7441 44.1483 20.2839 43.0836C19.8237 42.0189 19.4936 40.8978 19.2934 39.7203C19.0933 38.5428 19.0613 37.3367 19.1976 36.102C19.3056 35.1235 19.5165 34.1742 19.8303 33.2538C20.1441 32.3335 20.5466 31.4642 21.0377 30.6459C21.5289 29.8277 22.1088 29.0605 22.7773 28.3444C23.4458 27.6282 24.1817 26.9962 24.985 26.4482C25.0177 26.8998 25.0782 27.3663 25.1665 27.8476C25.2549 28.329 25.3665 28.8129 25.5015 29.2994C25.6364 29.7859 25.8089 30.2529 26.0188 30.7005C26.2288 31.1481 26.4537 31.5679 26.6934 31.9599C26.8942 32.2768 27.181 32.4558 27.5537 32.4969C27.8682 32.5317 28.1425 32.4499 28.3766 32.2518C28.6107 32.0536 28.7509 31.7979 28.7972 31.4847C28.8114 31.3566 28.8068 31.2382 28.7834 31.1295C28.76 31.0208 28.7134 30.9095 28.6434 30.7957C28.37 30.2821 28.1367 29.7789 27.9435 29.286C27.7503 28.793 27.5875 28.2917 27.4551 27.7819C27.3228 27.2721 27.2447 26.7506 27.2211 26.2175C27.1974 25.6843 27.2118 25.1259 27.2645 24.5422C27.4175 23.1561 27.8235 21.8804 28.4827 20.7153C29.1418 19.5501 29.9817 18.564 31.0021 17.757C32.0226 16.95 33.1675 16.3513 34.4367 15.9608C35.706 15.5704 37.0401 15.4465 38.4392 15.5891L39.5574 15.7125L39.4339 16.8307ZM31.3819 48.7651C32.9311 48.9361 34.4134 48.805 35.8289 48.3717C37.2443 47.9384 38.5205 47.2717 39.6573 46.3714C40.7942 45.4712 41.7226 44.377 42.4425 43.0888C43.1624 41.8007 43.6143 40.3768 43.7982 38.8172C43.9923 37.0584 43.8468 35.3858 43.3617 33.7996C42.8765 32.2134 42.0847 30.7348 40.9863 29.3638C39.6405 27.6708 38.6382 25.8565 37.9793 23.921C37.3205 21.9855 37.0279 19.9371 37.1013 17.7759C36.1204 17.7973 35.1972 17.9901 34.3317 18.3544C33.4662 18.7187 32.6862 19.2162 31.9917 19.8469C31.2972 20.4777 30.7387 21.2118 30.3161 22.0494C29.8936 22.8871 29.6218 23.8003 29.5009 24.789C29.4006 25.6976 29.4439 26.5336 29.6308 27.297C29.8178 28.0603 30.1328 28.8379 30.576 29.6296C30.7638 29.9568 30.898 30.29 30.9785 30.629C31.059 30.968 31.0832 31.3361 31.0511 31.7335C30.9997 32.1994 30.8641 32.6265 30.6444 33.0149C30.4247 33.4033 30.1409 33.7316 29.793 33.9997C29.445 34.2679 29.0628 34.4733 28.6462 34.6159C28.2296 34.7586 27.7831 34.7977 27.3068 34.7334C26.771 34.6742 26.3102 34.5232 25.9244 34.2801C25.5386 34.0371 25.2071 33.7294 24.9298 33.3569C24.6526 32.9844 24.4149 32.5749 24.2165 32.1286C24.0182 31.6823 23.8315 31.2372 23.6565 30.7935C23.0268 31.5847 22.5299 32.4553 22.1656 33.4055C21.8014 34.3556 21.5575 35.3367 21.434 36.3488C21.263 37.898 21.3942 39.3803 21.8274 40.7958C22.2607 42.2112 22.9275 43.4874 23.8277 44.6243C24.7279 45.7611 25.8221 46.6895 27.1103 47.4094C28.3985 48.1293 29.8223 48.5812 31.3819 48.7651Z" fill="white"/>
</g>
<defs>
<linearGradient id="paint0_linear_216_907" x1="36.5825" y1="0" x2="36.5825" y2="60" gradientUnits="userSpaceOnUse">
<stop stop-color="#202020"/>
<stop offset="1" stop-color="#4B4B4B"/>
</linearGradient>
<clipPath id="clip0_216_907">
<rect width="36" height="36" fill="white" transform="translate(17.1934 13.2441) rotate(6.29846)"/>
</clipPath>
</defs>
</svg>
