<svg width="134" height="47" viewBox="0 0 134 47" fill="none" xmlns="http://www.w3.org/2000/svg">
<path d="M37.3476 3.38235C37.9344 1.66519 40.307 1.61319 41.0027 3.22634L41.0616 3.38334L41.8534 5.69905C42.0349 6.23013 42.3282 6.71611 42.7134 7.12422C43.0987 7.53233 43.567 7.85307 44.0867 8.06481L44.2996 8.14429L46.6154 8.93517C48.3325 9.52194 48.3845 11.8946 46.7724 12.5903L46.6154 12.6491L44.2996 13.441C43.7684 13.6224 43.2822 13.9156 42.8739 14.3008C42.4656 14.6861 42.1447 15.1544 41.9329 15.6743L41.8534 15.8862L41.0625 18.2029C40.4758 19.9201 38.1031 19.9721 37.4084 18.3599L37.3476 18.2029L36.5567 15.8872C36.3754 15.356 36.0822 14.8698 35.6969 14.4615C35.3116 14.0532 34.8433 13.7323 34.3234 13.5205L34.1115 13.441L31.7958 12.6501C30.0776 12.0633 30.0256 9.69072 31.6388 8.996L31.7958 8.93517L34.1115 8.14429C34.6426 7.96282 35.1285 7.66956 35.5366 7.28431C35.9448 6.89905 36.2655 6.43075 36.4772 5.911L36.5567 5.69905L37.3476 3.38235ZM47.055 -0.000945868C47.2385 -0.000946276 47.4184 0.0505475 47.5742 0.147683C47.7299 0.244819 47.8553 0.383701 47.9361 0.548546L47.9832 0.663351L48.3266 1.6701L49.3344 2.01353C49.5183 2.07603 49.6796 2.19174 49.7977 2.34599C49.9159 2.50024 49.9855 2.68609 49.998 2.87998C50.0104 3.07388 49.9649 3.26709 49.8674 3.43513C49.7699 3.60318 49.6247 3.73848 49.4501 3.82391L49.3344 3.87101L48.3276 4.21444L47.9842 5.22217C47.9216 5.40608 47.8058 5.56727 47.6515 5.68531C47.4972 5.80334 47.3113 5.87292 47.1174 5.88521C46.9235 5.89751 46.7303 5.85197 46.5624 5.75437C46.3944 5.65677 46.2591 5.51151 46.1738 5.33698L46.1267 5.22217L45.7833 4.21542L44.7755 3.87199C44.5916 3.80949 44.4303 3.69378 44.3122 3.53953C44.194 3.38528 44.1244 3.19943 44.112 3.00554C44.0996 2.81164 44.145 2.61843 44.2425 2.45039C44.34 2.28235 44.4853 2.14704 44.6598 2.06161L44.7755 2.01451L45.7823 1.67108L46.1257 0.663351C46.1919 0.469483 46.3171 0.301185 46.4837 0.182053C46.6504 0.0629216 46.8501 -0.00106898 47.055 -0.000945868Z" fill="black"/>
<path d="M24.2168 7.84984C25.5089 7.84984 26.7152 7.93725 27.835 8.1096L27.7852 8.12718L27.5625 8.21312C25.2703 9.20026 25.3438 12.5717 27.7852 13.4055L31.0762 14.5295L31.377 14.6428C32.1155 14.9438 32.7808 15.3997 33.3281 15.9797C33.8755 16.5598 34.2931 17.2503 34.5508 18.0051L35.6738 21.2961L35.7607 21.5188C36.3059 22.7838 37.5776 23.3261 38.748 23.1487V32.0676C38.748 41.7543 33.9036 46.5979 24.2168 46.5979H14.5303C4.84351 46.5979 8.89853e-05 41.7543 0 32.0676L0.0146484 21.4866C0.307887 12.3956 5.14612 7.84986 14.5303 7.84984H24.2168ZM10.6631 15.2327C9.82191 15.2328 9.13965 15.9149 9.13965 16.7561V19.803C9.13988 20.644 9.82205 21.3253 10.6631 21.3254H27.4199C28.2611 21.3254 28.9431 20.6441 28.9434 19.803V16.7561C28.9434 15.9148 28.2612 15.2327 27.4199 15.2327H10.6631Z" fill="black"/>
<path d="M47.392 39.5979L47.728 20.1579H51.928L54.328 32.4219L56.896 20.1579H60.952L61.288 39.5979H58.408L58.096 26.4219L55.624 39.5979H53.152L50.56 26.3259L50.296 39.5979H47.392ZM63.1915 39.5979V20.1579H71.6635V22.8939H67.1515V28.0539H70.6315V30.8139H67.1515V36.9099H71.7115V39.5979H63.1915ZM72.7549 39.5979V20.1579H75.5149L79.8349 30.2859V20.1579H83.0989V39.5979H80.4589L76.1389 28.8459V39.5979H72.7549ZM90.124 39.8619C88.924 39.8619 87.924 39.6459 87.124 39.2139C86.324 38.7659 85.716 38.1019 85.3 37.2219C84.9 36.3259 84.668 35.1899 84.604 33.8139L88.012 33.2379C88.044 34.0379 88.124 34.7099 88.252 35.2539C88.396 35.7819 88.604 36.1819 88.876 36.4539C89.164 36.7099 89.516 36.8379 89.932 36.8379C90.444 36.8379 90.788 36.6779 90.964 36.3579C91.156 36.0379 91.252 35.6699 91.252 35.2539C91.252 34.4379 91.052 33.7579 90.652 33.2139C90.268 32.6539 89.756 32.0939 89.116 31.5339L87.1 29.7819C86.38 29.1739 85.788 28.4859 85.324 27.7179C84.876 26.9499 84.652 26.0059 84.652 24.8859C84.652 23.2859 85.116 22.0619 86.044 21.2139C86.988 20.3499 88.276 19.9179 89.908 19.9179C90.884 19.9179 91.684 20.0779 92.308 20.3979C92.932 20.7179 93.412 21.1499 93.748 21.6939C94.1 22.2219 94.34 22.8059 94.468 23.4459C94.612 24.0699 94.7 24.6939 94.732 25.3179L91.348 25.8219C91.316 25.2299 91.26 24.7099 91.18 24.2619C91.116 23.8139 90.972 23.4619 90.748 23.2059C90.54 22.9499 90.22 22.8219 89.788 22.8219C89.324 22.8219 88.98 22.9979 88.756 23.3499C88.532 23.6859 88.42 24.0619 88.42 24.4779C88.42 25.1659 88.572 25.7339 88.876 26.1819C89.196 26.6139 89.628 27.0699 90.172 27.5499L92.14 29.2779C92.956 29.9819 93.652 30.7899 94.228 31.7019C94.82 32.5979 95.116 33.7099 95.116 35.0379C95.116 35.9499 94.908 36.7739 94.492 37.5099C94.076 38.2459 93.492 38.8219 92.74 39.2379C92.004 39.6539 91.132 39.8619 90.124 39.8619ZM101.713 39.8619C100.241 39.8619 99.0972 39.6139 98.2812 39.1179C97.4652 38.6059 96.8892 37.8779 96.5532 36.9339C96.2332 35.9739 96.0732 34.8139 96.0732 33.4539V20.1579H99.9852V34.0059C99.9852 34.4859 100.017 34.9579 100.081 35.4219C100.161 35.8859 100.321 36.2619 100.561 36.5499C100.817 36.8379 101.201 36.9819 101.713 36.9819C102.241 36.9819 102.625 36.8379 102.865 36.5499C103.121 36.2619 103.281 35.8859 103.345 35.4219C103.409 34.9579 103.441 34.4859 103.441 34.0059V20.1579H107.353V33.4539C107.353 34.8139 107.185 35.9739 106.849 36.9339C106.529 37.8779 105.961 38.6059 105.145 39.1179C104.329 39.6139 103.185 39.8619 101.713 39.8619ZM109.156 39.5979V20.1579H114.196C115.508 20.1579 116.628 20.3099 117.556 20.6139C118.5 20.9019 119.22 21.4219 119.716 22.1739C120.228 22.9259 120.484 23.9659 120.484 25.2939C120.484 26.0939 120.412 26.8059 120.268 27.4299C120.14 28.0379 119.9 28.5739 119.548 29.0379C119.212 29.4859 118.732 29.8459 118.108 30.1179L120.796 39.5979H116.74L114.508 30.7899H113.116V39.5979H109.156ZM113.116 28.4379H114.268C114.908 28.4379 115.412 28.3339 115.78 28.1259C116.148 27.9179 116.404 27.6059 116.548 27.1899C116.708 26.7579 116.788 26.2299 116.788 25.6059C116.788 24.7099 116.62 24.0299 116.284 23.5659C115.964 23.0859 115.356 22.8459 114.46 22.8459H113.116V28.4379ZM121.228 39.5979L124.996 20.1579H129.388L133.132 39.5979H129.46L128.764 35.3259H125.692L124.948 39.5979H121.228ZM126.052 32.9019H128.38L127.204 25.0539L126.052 32.9019Z" fill="black"/>
</svg>
