<svg width="24" height="25" viewBox="0 0 24 25" fill="none" xmlns="http://www.w3.org/2000/svg">
<path d="M16 13.9136L21.223 17.3956C21.2983 17.4457 21.3858 17.4744 21.4761 17.4788C21.5664 17.4831 21.6563 17.4628 21.736 17.4201C21.8157 17.3774 21.8824 17.3139 21.9289 17.2364C21.9754 17.1588 22 17.07 22 16.9796V8.7836C22 8.69562 21.9768 8.60919 21.9328 8.53304C21.8887 8.45689 21.8253 8.39372 21.7491 8.34989C21.6728 8.30607 21.5863 8.28315 21.4983 8.28345C21.4103 8.28375 21.324 8.30726 21.248 8.3516L16 11.4136" stroke="#2E2E2E" stroke-width="2" stroke-linecap="round" stroke-linejoin="round"/>
<path d="M14 7H4C2.89543 7 2 7.89543 2 9V17C2 18.1046 2.89543 19 4 19H14C15.1046 19 16 18.1046 16 17V9C16 7.89543 15.1046 7 14 7Z" stroke="#2E2E2E" stroke-width="2" stroke-linecap="round" stroke-linejoin="round"/>
</svg>
